<svg width="40" height="40" viewBox="0 0 40 40" fill="none" xmlns="http://www.w3.org/2000/svg">
<rect width="40" height="40" rx="10" fill="#F9F9FC"/>
<path opacity="0.5" d="M30 18.5V20C30 24.714 30 27.0711 28.5355 28.5355C27.0711 30 24.714 30 20 30C15.286 30 12.9289 30 11.4645 28.5355C10 27.0711 10 24.714 10 20C10 15.286 10 12.9289 11.4645 11.4645C12.9289 10 15.286 10 20 10H21.5" stroke="#35356A" stroke-width="1.5" stroke-linecap="round"/>
<path d="M25.3009 10.8062L24.652 11.4551L18.6872 17.4199C18.2832 17.8239 18.0812 18.0259 17.9074 18.2487C17.7025 18.5114 17.5268 18.7957 17.3834 19.0965C17.2619 19.3515 17.1716 19.6225 16.9909 20.1646L16.4124 21.9L16.0381 23.0229C15.9492 23.2897 16.0186 23.5837 16.2174 23.7826C16.4163 23.9814 16.7104 24.0508 16.9771 23.9619L18.1 23.5876L19.8354 23.0091C20.3775 22.8284 20.6485 22.7381 20.9035 22.6166C21.2043 22.4732 21.4886 22.2975 21.7513 22.0926C21.9741 21.9188 22.1761 21.7168 22.5801 21.3128L28.5449 15.348L29.1938 14.6991C30.2687 13.6242 30.2687 11.8812 29.1938 10.8062C28.1188 9.73125 26.3759 9.73125 25.3009 10.8062Z" stroke="#35356A" stroke-width="1.5"/>
<path opacity="0.5" d="M24.6522 11.4551C24.6522 11.4551 24.7333 12.8338 25.9499 14.0503C27.1664 15.2669 28.5451 15.348 28.5451 15.348M18.1002 23.5876L16.4126 21.9" stroke="#35356A" stroke-width="1.5"/>
</svg>
